# File created by Blade
# Date/Time:  Wed Jan 21 19:13:57 2015
# Frame Rate: 120.000 fps
#------------------------------------------------------
:FULLY-SPECIFIED
:DEGREES
905
root -1.888674 32.664759 0.749600 54.065466 62.728617 2.894483
RightUpLeg -50.104718 -7.831494 6.106196
RightLeg 22.893514 -0.000000 -0.000000
RightFoot -18.709491 -4.411192 25.161206
RightToeBase 7.642028 -0.000000 -0.000000
LeftUpLeg -51.575184 6.631729 -10.913760
LeftLeg 9.353188 -0.000000 -0.000000
LeftFoot -17.363476 5.374271 -9.342657
LeftToeBase 10.734244 -0.000000 -0.000000
Spine -45.055027 -1.682351 6.264641
RightShoulder -18.592358 6.110101 -26.133109
RightArm -10.920619 -20.489980 94.510668
RightForeArm 15.278018 0.000000 26.914908
RightHand 12.869011 -0.000000 -1.778913
RightHandThumb1 -24.326973 -0.000000 -32.862282
LeftShoulder -5.968199 5.706851 27.685002
LeftArm 16.870170 23.438512 -94.680438
LeftForeArm 25.703066 -0.000000 59.722578
LeftHand -23.743995 -0.000000 7.881963
LeftHandThumb1 -26.253704 0.000000 33.147579
Head -16.029444 0.798210 15.677592
906
root -1.945798 32.676975 0.738739 54.026451 62.070213 2.719082
RightUpLeg -50.104735 -7.586696 5.869029
RightLeg 22.320733 -0.000000 -0.000000
RightFoot -18.398348 -4.269287 24.965501
RightToeBase 7.635292 -0.000000 -0.000000
LeftUpLeg -51.617895 6.697961 -10.967760
LeftLeg 9.128203 -0.000000 -0.000000
LeftFoot -17.513746 5.089118 -9.778857
LeftToeBase 10.648008 -0.000000 -0.000000
Spine -45.102463 -1.593299 6.134912
RightShoulder -18.677326 6.274480 -26.171868
RightArm -10.665470 -21.748542 95.239569
RightForeArm 14.985710 -0.000000 26.348067
RightHand 12.685276 -0.000000 -1.150458
RightHandThumb1 -24.326973 -0.000000 -32.862282
LeftShoulder -5.943712 6.040111 27.374076
LeftArm 16.637550 24.537221 -94.852903
LeftForeArm 26.687769 0.000000 58.342812
LeftHand -23.785465 -0.000000 6.708530
LeftHandThumb1 -26.253704 0.000000 33.147579
Head -16.456112 0.051406 15.802302
907
root -2.006416 32.687541 0.729975 54.056502 61.331568 2.628194
RightUpLeg -50.091538 -7.200869 5.421288
RightLeg 21.724053 -0.000000 -0.000000
RightFoot -17.840291 -4.400293 24.078709
RightToeBase 6.558294 -0.000000 -0.000000
LeftUpLeg -51.655873 6.750508 -11.064734
LeftLeg 8.928761 -0.000000 -0.000000
LeftFoot -17.663303 4.861006 -10.126047
LeftToeBase 10.373243 -0.000000 -0.000000
Spine -45.139025 -1.565632 5.953725
RightShoulder -18.708423 6.349429 -26.159619
RightArm -10.364338 -22.970184 95.970923
RightForeArm 14.911072 -0.000000 25.908888
RightHand 12.583802 0.000000 -0.415441
RightHandThumb1 -24.326973 -0.000000 -32.862282
LeftShoulder -5.886416 6.327037 27.089832
LeftArm 16.408732 25.663187 -95.019701
LeftForeArm 27.834804 -0.000000 56.921548
LeftHand -23.823948 -0.000000 5.255841
LeftHandThumb1 -26.253704 0.000000 33.147579
Head -16.870782 -0.638136 15.974835
908
root -2.066484 32.696260 0.726432 54.010365 60.527806 2.500463
RightUpLeg -50.060442 -6.725201 4.877219
RightLeg 21.227993 -0.000000 -0.000000
RightFoot -17.124783 -4.572946 22.761208
RightToeBase 5.055998 -0.000000 -0.000000
LeftUpLeg -51.677635 6.910919 -11.231493
LeftLeg 8.770300 -0.000000 -0.000000
LeftFoot -17.857076 4.550356 -10.430349
LeftToeBase 10.462828 -0.000000 -0.000000
Spine -45.129031 -1.570149 5.788922
RightShoulder -18.705421 6.526866 -26.199155
RightArm -10.228943 -24.060791 96.784935
RightForeArm 14.756269 -0.000000 25.596653
RightHand 12.308909 -0.000000 0.087996
RightHandThumb1 -24.326973 -0.000000 -32.862282
LeftShoulder -5.813759 6.668809 26.783454
LeftArm 16.270092 26.724186 -95.132345
LeftForeArm 29.016455 -0.000000 55.479445
LeftHand -24.033568 -0.000000 4.220428
LeftHandThumb1 -26.253704 0.000000 33.147579
Head -17.279064 -1.272870 16.158514
909
root -2.122630 32.702846 0.717534 54.010462 59.731461 2.374001
RightUpLeg -50.068211 -6.287133 4.273753
RightLeg 20.749863 -0.000000 -0.000000
RightFoot -16.791826 -4.064993 22.902807
RightToeBase 4.971287 -0.000000 -0.000000
LeftUpLeg -51.756694 6.935345 -11.287465
LeftLeg 8.675045 -0.000000 -0.000000
LeftFoot -18.064724 4.330623 -10.691174
LeftToeBase 10.368801 -0.000000 -0.000000
Spine -45.161718 -1.588713 5.681914
RightShoulder -18.688485 6.630558 -26.284670
RightArm -10.056150 -25.063496 97.606612
RightForeArm 14.537944 -0.000000 25.286346
RightHand 12.273789 -0.000000 0.479376
RightHandThumb1 -24.326973 -0.000000 -32.862282
LeftShoulder -5.767174 6.992482 26.492879
LeftArm 16.180457 27.830471 -95.252139
LeftForeArm 30.528644 -0.000000 53.959981
LeftHand -24.045781 -0.000000 2.264559
LeftHandThumb1 -26.253704 0.000000 33.147579
Head -17.703193 -1.899995 16.306815
